<svg width="22" height="22" viewBox="0 0 22 22" xmlns="http://www.w3.org/2000/svg"><title>Globus</title><g id="Page-1" fill="none" fill-rule="evenodd"><g id="3_Investors-3-Copy"><g id="Globus" transform="translate(0 1)"><circle id="Oval-3" fill="#5D6F93" cx="11" cy="10" r="10"/><path d="M10.607 19.958a9.844 9.844 0 0 0 9.85-9.85A9.843 9.843 0 0 0 10.606.26a9.842 9.842 0 0 0-9.85 9.85 9.844 9.844 0 0 0 9.85 9.848z" id="Stroke-1" stroke="#FFF" stroke-width="1.3"/><path d="M12.944.374l.188 1.32a.348.348 0 0 1-.026.214l-.456.968a.343.343 0 0 1-.517.13l-.66-.494a.343.343 0 0 1-.13-.21L10.946.26" id="Stroke-3" stroke="#FFF" stroke-width="1.3"/><path d="M5.445 1.717l1.02.994c.084.083.207.112.318.076l1.75-.56a.316.316 0 0 1 .21.006l1.007.38a.318.318 0 0 1 .206.297v1.24c0 .137-.09.258-.222.3l-1.495.457a.312.312 0 0 0-.16.112l-.896 1.355a.32.32 0 0 0-.06.226l.244 1.236a.35.35 0 0 1-.58.326l-.905-.835a.31.31 0 0 0-.267-.15l-.57-.003a.314.314 0 0 0-.315.314v.816c0 .065.02.13.06.184l.817.99c.023.03.05.056.083.076l.752.53c.078.05.173.063.262.037l1.362-.194a.315.315 0 0 1 .276.048l1.092 1.023c.02.015.044.028.07.038l1.786.772a.313.313 0 0 1 .18.396l-.79 3.756a.315.315 0 0 1-.033.067l-1.512 2.04a.31.31 0 0 1-.53-.013l-.763-1.57a.32.32 0 0 1-.043-.144l-.213-1.677a.318.318 0 0 0-.106-.22l-2.073-1.38a.39.39 0 0 1-.172-.285l-.146-1.482a.388.388 0 0 0-.128-.25l-1.38-1.24a.73.73 0 0 1-.157-.2L2.457 7.79a.313.313 0 0 1-.034-.193l.2-3.26" id="Stroke-5" stroke="#FFF" stroke-width="1.3"/><path d="M17.564 17.11l-.57-1.334a1.427 1.427 0 0 1-.115-.522l-.055-1.962a.224.224 0 0 0-.237-.218l-2.176.12a.577.577 0 0 1-.482-.217l-.695-.87a.577.577 0 0 1-.086-.573l.842-2.116a.577.577 0 0 1 .452-.357l2.22-.327a.35.35 0 0 1 .258.063l1.1.8a.35.35 0 0 0 .394.012l.625-.392a.35.35 0 0 0 .15-.2l.44-1.524a.218.218 0 0 0-.005-.134l-.274-.77a.22.22 0 0 0-.317-.116l-.656.388a.22.22 0 0 1-.32-.12l-.222-.67a.22.22 0 0 0-.174-.147l-.582-.09a.35.35 0 0 0-.22.036l-.974.518a.35.35 0 0 0-.17.21l-.168.574a.35.35 0 0 1-.337.252h-1.585a.35.35 0 0 1-.347-.403l.19-1.237a.35.35 0 0 1 .232-.28l1.322-.45a.35.35 0 0 0 .153-.56l-.31-.36a.35.35 0 0 1 .138-.554l.98-.39.91-.666" id="Stroke-7" stroke="#FFF" stroke-width="1.3"/></g></g></g></svg>